<svg width="36" height="35" viewBox="0 0 36 35" fill="none" xmlns="http://www.w3.org/2000/svg">
<path d="M0 5C0 2.23858 2.30254 0 5.14286 0H30.8571C33.6975 0 36 2.23858 36 5V30C36 32.7614 33.6975 35 30.8571 35H5.14286C2.30254 35 0 32.7614 0 30V5Z" fill="#454545"/>
<path d="M18 12.9453C17.707 12.9453 17.4259 12.8321 17.2187 12.6307C17.0115 12.4292 16.8951 12.156 16.8951 11.8711V7.57422C16.8951 7.28932 17.0115 7.01609 17.2187 6.81463C17.4259 6.61318 17.707 6.5 18 6.5C18.293 6.5 18.5741 6.61318 18.7813 6.81463C18.9885 7.01609 19.1049 7.28932 19.1049 7.57422V11.8711C19.1049 12.156 18.9885 12.4292 18.7813 12.6307C18.5741 12.8321 18.293 12.9453 18 12.9453ZM18 28.5C17.707 28.5 17.4259 28.3868 17.2187 28.1854C17.0115 27.9839 16.8951 27.7107 16.8951 27.4258V23.1289C16.8951 22.844 17.0115 22.5708 17.2187 22.3693C17.4259 22.1679 17.707 22.0547 18 22.0547C18.293 22.0547 18.5741 22.1679 18.7813 22.3693C18.9885 22.5708 19.1049 22.844 19.1049 23.1289V27.4258C19.1049 27.7107 18.9885 27.9839 18.7813 28.1854C18.5741 28.3868 18.293 28.5 18 28.5ZM12.2103 18.5742H7.79063C7.49758 18.5742 7.21655 18.461 7.00934 18.2596C6.80212 18.0581 6.68571 17.7849 6.68571 17.5C6.68571 17.2151 6.80212 16.9419 7.00934 16.7404C7.21655 16.539 7.49758 16.4258 7.79063 16.4258H12.2103C12.5033 16.4258 12.7843 16.539 12.9916 16.7404C13.1988 16.9419 13.3152 17.2151 13.3152 17.5C13.3152 17.7849 13.1988 18.0581 12.9916 18.2596C12.7843 18.461 12.5033 18.5742 12.2103 18.5742ZM28.2094 18.5742H23.7897C23.4967 18.5742 23.2157 18.461 23.0084 18.2596C22.8012 18.0581 22.6848 17.7849 22.6848 17.5C22.6848 17.2151 22.8012 16.9419 23.0084 16.7404C23.2157 16.539 23.4967 16.4258 23.7897 16.4258H28.2094C28.5024 16.4258 28.7835 16.539 28.9907 16.7404C29.1979 16.9419 29.3143 17.2151 29.3143 17.5C29.3143 17.7849 29.1979 18.0581 28.9907 18.2596C28.7835 18.461 28.5024 18.5742 28.2094 18.5742ZM22.0939 14.594C21.8755 14.5936 21.6622 14.5304 21.4808 14.4122C21.2994 14.294 21.1581 14.1262 21.0747 13.9299C20.9913 13.7337 20.9696 13.5179 21.0124 13.3097C21.0551 13.1014 21.1603 12.9102 21.3147 12.7601L24.4377 9.72266C24.5391 9.61807 24.661 9.53434 24.7963 9.47642C24.9316 9.41849 25.0775 9.38756 25.2253 9.38544C25.3732 9.38332 25.5199 9.41007 25.6569 9.46409C25.7939 9.51812 25.9184 9.59832 26.0229 9.69995C26.1274 9.80159 26.2099 9.92258 26.2655 10.0558C26.3211 10.189 26.3486 10.3316 26.3464 10.4754C26.3442 10.6191 26.3124 10.7609 26.2528 10.8925C26.1933 11.024 26.1071 11.1426 25.9996 11.2412L22.8744 14.2795C22.772 14.3793 22.6503 14.4584 22.5164 14.5124C22.3825 14.5664 22.2389 14.5941 22.0939 14.594ZM10.781 25.5927C10.5625 25.5926 10.3489 25.5295 10.1673 25.4114C9.98572 25.2933 9.84421 25.1255 9.76067 24.9292C9.67714 24.733 9.65533 24.517 9.69801 24.3087C9.74069 24.1004 9.84593 23.909 10.0004 23.7588L13.1247 20.7227C13.2273 20.6229 13.3491 20.5438 13.4832 20.4898C13.6173 20.4358 13.761 20.408 13.9061 20.408C14.0512 20.408 14.1949 20.4358 14.329 20.4898C14.463 20.5438 14.5849 20.6229 14.6875 20.7227C14.7901 20.8224 14.8715 20.9409 14.927 21.0712C14.9826 21.2016 15.0111 21.3413 15.0111 21.4823C15.0111 21.6234 14.9826 21.7631 14.927 21.8935C14.8715 22.0238 14.7901 22.1423 14.6875 22.242L11.5623 25.2773C11.4599 25.3774 11.3381 25.4567 11.204 25.5108C11.0699 25.565 10.9261 25.5928 10.781 25.5927ZM13.9061 14.594C13.761 14.5942 13.6172 14.5665 13.4831 14.5125C13.349 14.4586 13.2272 14.3794 13.1247 14.2795L10.0004 11.2412C9.89288 11.1426 9.80675 11.024 9.74717 10.8925C9.68759 10.7609 9.65577 10.6191 9.65359 10.4754C9.65142 10.3316 9.67893 10.189 9.7345 10.0558C9.79006 9.92258 9.87256 9.80159 9.9771 9.69995C10.0816 9.59832 10.2061 9.51812 10.3431 9.46409C10.4801 9.41007 10.6268 9.38332 10.7747 9.38544C10.9225 9.38756 11.0684 9.41849 11.2037 9.47642C11.339 9.53434 11.4609 9.61807 11.5623 9.72266L14.6875 12.761C14.842 12.9112 14.9473 13.1026 14.99 13.311C15.0326 13.5194 15.0107 13.7355 14.9271 13.9318C14.8434 14.1281 14.7018 14.2959 14.52 14.4139C14.3383 14.5319 14.1246 14.5941 13.9061 14.594ZM25.219 25.5927C25.0739 25.5928 24.9301 25.565 24.796 25.5108C24.6619 25.4567 24.5401 25.3774 24.4377 25.2773L21.3147 22.2399C21.1248 22.0355 21.0228 21.7679 21.03 21.4925C21.0372 21.2171 21.1529 20.9549 21.3533 20.7601C21.5536 20.5653 21.8233 20.4528 22.1066 20.4459C22.3899 20.4389 22.6651 20.538 22.8753 20.7227L25.9996 23.7588C26.1541 23.9091 26.2594 24.1005 26.302 24.3089C26.3447 24.5173 26.3228 24.7333 26.2392 24.9296C26.1555 25.1259 26.0139 25.2937 25.8321 25.4118C25.6504 25.5298 25.4376 25.5928 25.219 25.5927Z" fill="white"/>
</svg>
