<svg width="8" height="12" viewBox="0 0 8 12" fill="none" xmlns="http://www.w3.org/2000/svg">
<path d="M7.28071 7.24124C7.56931 6.96575 7.61053 6.57221 7.36316 6.17866C7.15702 5.86383 6.78596 5.70641 6.37368 5.78512C6.20876 5.82447 6.04385 5.90318 5.87893 6.02125C4.60085 6.84769 2.86925 6.80834 1.59116 5.98189C1.50871 5.94254 1.42625 5.90318 1.34379 5.86383C0.890276 5.66705 0.436767 5.74577 0.189396 6.13931C-0.0992042 6.53286 -0.0579806 6.96576 0.313076 7.31995C0.395533 7.39866 0.477991 7.43801 0.519219 7.51672L0.56045 7.55607C1.13765 7.98897 1.83854 8.26446 2.74556 8.38252L2.20959 8.89413C1.75608 9.32703 1.26134 9.79928 0.807824 10.2322C0.684138 10.3502 0.519219 10.547 0.519219 10.8225C0.519219 11.1767 0.725366 11.5309 1.09642 11.6883C1.22011 11.767 1.34379 11.767 1.46748 11.767C1.67362 11.767 1.92099 11.6883 2.08591 11.4915C2.70433 10.9012 3.19908 10.429 3.69382 9.9567C3.73505 9.91735 3.73505 9.91734 3.73505 9.91734C3.73505 9.91734 3.77628 9.91735 3.77628 9.9567C4.10611 10.3109 4.47716 10.6257 4.80699 10.9799C4.97191 11.1373 5.13682 11.2948 5.30173 11.4522C5.50788 11.6489 5.67279 11.7277 5.92016 11.7277C6.29122 11.767 6.70351 11.5309 6.86842 11.1767C7.03333 10.8619 6.95088 10.4683 6.66228 10.2322C6.24999 9.83864 5.8377 9.40573 5.38419 9.01219L4.68331 8.34316C5.05436 8.30381 5.46665 8.2251 5.83771 8.06768C6.45613 7.87091 6.90965 7.59543 7.28071 7.24124Z" fill="white"/>
<path d="M3.73505 6.13931C5.50787 6.13931 6.95088 4.80125 6.95088 3.109C6.95088 2.28256 6.62105 1.49547 6.00262 0.905155C5.38419 0.314837 4.60085 0 3.77628 0C2.00345 0 0.601678 1.37741 0.56045 3.0303C0.56045 3.85674 0.890279 4.60448 1.50871 5.1948C2.08591 5.82447 2.86925 6.13931 3.73505 6.13931ZM2.82802 2.20386C3.07539 1.96773 3.40522 1.84966 3.73505 1.84966C4.47716 1.84966 5.01313 2.40063 5.01313 3.06965C5.01313 3.77804 4.43593 4.28964 3.73505 4.28964C2.99293 4.28964 2.45697 3.73868 2.45697 3.06965C2.45697 2.75482 2.58065 2.43998 2.82802 2.20386Z" fill="white"/>
<path d="M7.28071 7.24124C7.56931 6.96575 7.61053 6.57221 7.36316 6.17866C7.15702 5.86383 6.78596 5.70641 6.37368 5.78512C6.20876 5.82447 6.04385 5.90318 5.87893 6.02125C4.60085 6.84769 2.86925 6.80834 1.59116 5.98189C1.50871 5.94254 1.42625 5.90318 1.34379 5.86383C0.890276 5.66705 0.436767 5.74577 0.189396 6.13931C-0.0992042 6.53286 -0.0579806 6.96576 0.313076 7.31995C0.395533 7.39866 0.477991 7.43801 0.519219 7.51672L0.56045 7.55607C1.13765 7.98897 1.83854 8.26446 2.74556 8.38252L2.20959 8.89413C1.75608 9.32703 1.26134 9.79928 0.807824 10.2322C0.684138 10.3502 0.519219 10.547 0.519219 10.8225C0.519219 11.1767 0.725366 11.5309 1.09642 11.6883C1.22011 11.767 1.34379 11.767 1.46748 11.767C1.67362 11.767 1.92099 11.6883 2.08591 11.4915C2.70433 10.9012 3.19908 10.429 3.69382 9.9567C3.73505 9.91735 3.73505 9.91734 3.73505 9.91734C3.73505 9.91734 3.77628 9.91735 3.77628 9.9567C4.10611 10.3109 4.47716 10.6257 4.80699 10.9799C4.97191 11.1373 5.13682 11.2948 5.30173 11.4522C5.50788 11.6489 5.67279 11.7277 5.92016 11.7277C6.29122 11.767 6.70351 11.5309 6.86842 11.1767C7.03333 10.8619 6.95088 10.4683 6.66228 10.2322C6.24999 9.83864 5.8377 9.40573 5.38419 9.01219L4.68331 8.34316C5.05436 8.30381 5.46665 8.2251 5.83771 8.06768C6.45613 7.87091 6.90965 7.59543 7.28071 7.24124Z" fill="white"/>
</svg>
