<svg width="12" height="8" viewBox="0 0 12 8" fill="none" xmlns="http://www.w3.org/2000/svg">
<path d="M6.29082 7.35C2.34463 7.35 0.0937851 4.59099 0 0H1.9767C2.04163 3.36967 3.49891 4.797 4.65319 5.09129V0H6.51446V2.90616C7.65431 2.78108 8.85187 1.45676 9.25587 0H11.1171C10.9649 0.755515 10.6614 1.47087 10.2257 2.10131C9.79004 2.73176 9.23146 3.26373 8.58495 3.66396C9.30661 4.02967 9.94402 4.54729 10.4551 5.18267C10.9662 5.81805 11.3394 6.55674 11.55 7.35H9.50116C9.31209 6.66099 8.92783 6.04422 8.39653 5.57698C7.86523 5.10974 7.21052 4.81282 6.51446 4.72342V7.35H6.29082Z" fill="white"/>
</svg>
