<svg width="12" height="12" viewBox="0 0 12 12" fill="none" xmlns="http://www.w3.org/2000/svg">
<path d="M9.85975 1.60781C8.77317 0.574218 7.32439 0 5.79512 0C2.61585 0 0.0402433 2.45 0.0402433 5.47422C0.0402433 6.43125 0.321951 7.38828 0.804878 8.19219L0 11.025L3.05854 10.2594C3.90366 10.6805 4.82927 10.9102 5.79512 10.9102C8.97439 10.9102 11.55 8.46016 11.55 5.43594C11.5098 4.01953 10.9463 2.64141 9.85975 1.60781ZM8.57195 7.42656C8.45122 7.73281 7.8878 8.03906 7.6061 8.07734C7.36463 8.11562 7.04268 8.11563 6.72073 8.03906C6.51951 7.9625 6.23781 7.88594 5.91585 7.73281C4.46707 7.15859 3.54146 5.78047 3.46098 5.66562C3.38049 5.58906 2.85732 4.93828 2.85732 4.24922C2.85732 3.56016 3.21951 3.25391 3.34024 3.10078C3.46098 2.94766 3.62195 2.94766 3.74268 2.94766C3.82317 2.94766 3.9439 2.94766 4.02439 2.94766C4.10488 2.94766 4.22561 2.90937 4.34634 3.17734C4.46707 3.44531 4.74878 4.13437 4.78902 4.17266C4.82927 4.24922 4.82927 4.32578 4.78902 4.40234C4.74878 4.47891 4.70854 4.55547 4.62805 4.63203C4.54756 4.70859 4.46707 4.82344 4.42683 4.86172C4.34634 4.93828 4.26585 5.01484 4.34634 5.12969C4.42683 5.28281 4.70854 5.70391 5.15122 6.08672C5.71463 6.54609 6.15732 6.69922 6.31829 6.77578C6.47927 6.85234 6.55975 6.81406 6.64024 6.7375C6.72073 6.66094 7.00244 6.35469 7.08293 6.20156C7.16342 6.04844 7.28415 6.08672 7.40488 6.125C7.52561 6.16328 8.25 6.50781 8.37073 6.58438C8.53171 6.66094 8.61219 6.69922 8.65244 6.7375C8.69268 6.85234 8.69268 7.12031 8.57195 7.42656Z" fill="white"/>
</svg>
