<svg width="12" height="13" viewBox="0 0 12 13" fill="none" xmlns="http://www.w3.org/2000/svg">
<path d="M8.53331 0.286605C6.53227 -0.0955349 4.45425 -0.0955349 2.45321 0.286605C1.56813 0.477674 0.45216 1.54767 0.259751 2.38837C-0.0865838 4.03157 -0.0865838 5.71299 0.259751 7.35619C0.490641 8.19689 1.60661 9.26688 2.45321 9.45795C2.49169 9.45795 2.53017 9.49617 2.53017 9.53438V11.9419C2.53017 12.0565 2.6841 12.1329 2.76106 12.0183L3.91551 10.8337C3.91551 10.8337 4.83907 9.87831 4.993 9.72545C4.993 9.72545 5.03148 9.68724 5.06996 9.68724C6.22441 9.72545 7.41734 9.61081 8.57179 9.41974C9.45687 9.22867 10.5728 8.15868 10.7652 7.31797C11.1116 5.67477 11.1116 3.99336 10.7652 2.35016C10.5344 1.54767 9.41839 0.477674 8.53331 0.286605ZM8.57179 7.47083C8.37939 7.85297 8.1485 8.15868 7.76368 8.34975C7.64823 8.38796 7.53279 8.42618 7.41734 8.46439C7.26342 8.42618 7.14797 8.38796 7.03253 8.34975C5.80111 7.85297 4.64666 7.16512 3.7231 6.17155C3.22284 5.59834 2.79954 4.94871 2.45321 4.26086C2.29928 3.91693 2.14535 3.61122 2.02991 3.26729C1.91446 2.96158 2.10687 2.65587 2.29928 2.42659C2.49169 2.1973 2.72258 2.04445 2.99195 1.9298C3.18436 1.81516 3.37677 1.89159 3.53069 2.04445C3.83855 2.42659 4.1464 2.80873 4.37729 3.22908C4.53122 3.49658 4.49273 3.80229 4.22336 3.99336C4.1464 4.03157 4.10792 4.06979 4.03095 4.14621C3.99247 4.18443 3.91551 4.22264 3.87703 4.29907C3.80006 4.41371 3.80006 4.52835 3.83855 4.643C4.1464 5.52192 4.72362 6.20977 5.6087 6.59191C5.76263 6.66833 5.87808 6.70655 6.07049 6.70655C6.33986 6.66834 6.4553 6.36262 6.64771 6.20977C6.84012 6.05691 7.07101 6.05691 7.3019 6.17155C7.49431 6.2862 7.68671 6.43905 7.9176 6.59191C8.11001 6.74476 8.30242 6.85941 8.49483 7.01226C8.61027 7.08869 8.64876 7.27976 8.57179 7.47083ZM6.95556 4.60478C6.8786 4.60478 6.91708 4.60478 6.95556 4.60478C6.80164 4.60478 6.76315 4.52835 6.72467 4.41371C6.72467 4.33728 6.72467 4.22264 6.68619 4.14621C6.64771 3.99336 6.57075 3.8405 6.41682 3.72586C6.33986 3.68765 6.26289 3.64943 6.18593 3.61122C6.07048 3.573 5.99352 3.573 5.87808 3.573C5.76263 3.53479 5.72415 3.45836 5.72415 3.34372C5.72415 3.26729 5.83959 3.19087 5.91656 3.19087C6.53227 3.22908 6.99404 3.573 7.07101 4.29907C7.07101 4.33728 7.07101 4.41371 7.07101 4.45193C7.07101 4.52835 7.03253 4.60478 6.95556 4.60478ZM6.57074 2.92337C6.37834 2.84694 6.18593 2.77051 5.95504 2.7323C5.87808 2.7323 5.76263 2.69408 5.68567 2.69408C5.57022 2.69408 5.49326 2.61766 5.53174 2.50301C5.53174 2.38837 5.6087 2.31194 5.72415 2.35016C6.10897 2.38837 6.4553 2.4648 6.80164 2.61766C7.49431 2.96158 7.87912 3.53479 7.99457 4.29907C7.99457 4.33728 7.99457 4.3755 7.99457 4.41371C7.99457 4.49014 7.99457 4.56657 7.99457 4.68121C7.99457 4.71942 7.99457 4.75764 7.99457 4.79585C7.95609 4.94871 7.68672 4.98692 7.64823 4.79585C7.64823 4.75764 7.60975 4.68121 7.60975 4.643C7.60975 4.29907 7.53279 3.95514 7.37886 3.64943C7.14797 3.30551 6.8786 3.07622 6.57074 2.92337ZM8.64876 5.21621C8.53331 5.21621 8.45635 5.10156 8.45635 4.98692C8.45635 4.75764 8.41787 4.52835 8.37939 4.29907C8.22546 3.07622 7.22494 2.08266 6.032 1.89159C5.8396 1.85338 5.64719 1.85338 5.49326 1.81516C5.37782 1.81516 5.22389 1.81516 5.18541 1.66231C5.14692 1.54767 5.26237 1.43302 5.37781 1.43302C5.4163 1.43302 5.45478 1.43302 5.45478 1.43302C5.53174 1.43302 7.03253 1.47124 5.45478 1.43302C7.07101 1.47124 8.41787 2.54123 8.68724 4.14621C8.72572 4.41371 8.7642 4.68121 8.7642 4.98692C8.84117 5.10156 8.7642 5.21621 8.64876 5.21621Z" fill="white"/>
</svg>
